#!OML:ASF H:\LiuWeirdWalks\Patient Classification 1\Patient 1\Session 1\male.ASF
:FULLY-SPECIFIED
:DEGREES
1269
root 3.30655 18.0108 26.9306 2.40251 4.57714 -1.55891
lowerback 11.3055 -0.420374 -2.79353
upperback 1.75742 -0.751862 2.85069
thorax -4.42504 -0.309366 4.68302
lowerneck -23.9663 1.69173 8.08665
upperneck 12.4531 1.24349 -8.69009
head 7.84653 0.0892475 -4.08838
rclavicle 1.07344e-014 -1.98785e-015
rhumerus -20.3113 -33.836 -16.8178
rradius 36.2146
rwrist -0.924546
rhand -23.861 -1.91439
rfingers 7.12502
rthumb 2.61161 -31.8781
lclavicle 1.07344e-014 -1.98785e-015
lhumerus -30.3376 -15.282 37.0331
lradius 42.9457
lwrist 48.7313
lhand -32.8785 -6.80492
lfingers 7.12502
lthumb -6.09693 23.0873
rfemur -28.427 -9.75011 16.7993
rtibia 27.5718
rfoot -5.52892 -20.8444
rtoes -8.99096
lfemur 1.02299 3.18768 -18.7586
ltibia 18.7672
lfoot -13.8314 4.44072
ltoes -13.0331
1270
root 3.29214 18.0056 27.0104 2.37374 4.80113 -1.30956
lowerback 11.2864 -0.487432 -2.84817
upperback 1.77627 -0.845344 2.88766
thorax -4.38377 -0.355799 4.76633
lowerneck -24.001 1.7208 8.15339
upperneck 12.4225 1.279 -8.81023
head 7.84702 0.0962927 -4.13595
rclavicle 9.74045e-015 1.98785e-014
rhumerus -20.2879 -33.8582 -17.0221
rradius 36.0814
rwrist -0.881366
rhand -23.7597 -1.89908
rfingers 7.12502
rthumb 2.70946 -31.8616
lclavicle 9.74045e-015 1.98785e-014
lhumerus -30.5346 -14.822 37.6386
lradius 42.8772
lwrist 48.3956
lhand -32.7226 -6.77507
lfingers 7.12502
lthumb -5.94636 23.1215
rfemur -28.426 -9.35165 16.3365
rtibia 26.1875
rfoot -5.52304 -21.1827
rtoes -9.08986
lfemur 1.60767 3.21044 -18.9501
ltibia 18.2107
lfoot -13.6341 4.4212
ltoes -13.3042
1271
root 3.27615 17.9988 27.0915 2.33777 5.0673 -1.06246
lowerback 11.2726 -0.554092 -2.8765
upperback 1.79704 -0.93539 2.91989
thorax -4.344 -0.400986 4.82904
lowerneck -24.0824 1.7241 8.16215
upperneck 12.436 1.28746 -8.87599
head 7.86645 0.092264 -4.16023
rclavicle 1.44119e-014 4.37326e-015
rhumerus -20.3401 -33.8703 -17.1689
rradius 36.0098
rwrist -0.848271
rhand -23.669 -1.856
rfingers 7.12502
rthumb 2.79704 -31.8174
lclavicle 1.44119e-014 4.37326e-015
lhumerus -30.6457 -14.4923 38.2024
lradius 42.7962
lwrist 48.0781
lhand -32.5935 -6.67737
lfingers 7.12502
lthumb -5.82174 23.2226
rfemur -28.354 -8.94209 15.8413
rtibia 24.8146
rfoot -5.46582 -21.5478
rtoes -9.15315
lfemur 2.15576 3.21799 -19.1251
ltibia 17.7489
lfoot -13.484 4.38076
ltoes -13.5663
1272
root 3.25777 17.9906 27.1729 2.2822 5.36389 -0.877331
lowerback 11.2909 -0.639422 -2.88353
upperback 1.79764 -1.0465 2.98312
thorax -4.34055 -0.455517 4.91676
lowerneck -24.1073 1.73364 8.18168
upperneck 12.4617 1.30655 -8.94621
head 7.88192 0.0945241 -4.18606
rclavicle -3.37934e-015 6.75868e-015
rhumerus -20.3439 -33.866 -17.318
rradius 35.9149
rwrist -0.755811
rhand -23.563 -1.75932
rfingers 7.12502
rthumb 2.89944 -31.7194
lclavicle -3.37934e-015 6.75868e-015
lhumerus -30.8031 -14.2213 38.7136
lradius 42.7542
lwrist 47.7259
lhand -32.4288 -6.60204
lfingers 7.12502
lthumb -5.66274 23.3023
rfemur -28.2258 -8.49651 15.3899
rtibia 23.504
rfoot -5.39357 -21.9714
rtoes -9.2297
lfemur 2.68364 3.2224 -19.2123
ltibia 17.3589
lfoot -13.3659 4.31877
ltoes -13.8207
1273
root 3.23712 17.9813 27.2554 2.17676 5.68214 -0.847195
lowerback 11.329 -0.732267 -2.74072
upperback 1.82068 -1.14765 3.09075
thorax -4.32746 -0.507647 4.96461
lowerneck -24.1488 1.74209 8.20086
upperneck 12.4739 1.32329 -9.02169
head 7.89544 0.0947296 -4.2139
rclavicle 2.62396e-014 -3.26007e-014
rhumerus -20.3772 -33.9246 -17.4212
rradius 35.867
rwrist -0.532618
rhand -23.3853 -1.62262
rfingers 7.12502
rthumb 3.07104 -31.5803
lclavicle 2.62396e-014 -3.26007e-014
lhumerus -30.8905 -14.0233 39.1655
lradius 42.711
lwrist 47.4228
lhand -32.3045 -6.51918
lfingers 7.12502
lthumb -5.5427 23.3883
rfemur -28.0418 -8.01785 15.0914
rtibia 22.3183
rfoot -5.37264 -22.4552
rtoes -9.30627
lfemur 3.23452 3.24348 -19.1037
ltibia 17.0087
lfoot -13.2757 4.21851
ltoes -14.0782
1274
root 3.21485 17.9698 27.3398 2.15028 6.02092 -0.555136
lowerback 11.2976 -0.810617 -2.86039
upperback 1.83791 -1.26363 3.13183
thorax -4.27601 -0.564628 5.09207
lowerneck -24.2464 1.74255 8.19889
upperneck 12.5212 1.33286 -9.0908
head 7.92902 0.0899248 -4.23844
rclavicle -3.49861e-014 2.14687e-014
rhumerus -20.4475 -34.0638 -17.4638
rradius 35.8712
rwrist -0.155824
rhand -23.1258 -1.48249
rfingers 7.12502
rthumb 3.32165 -31.4364
lclavicle -3.49861e-014 2.14687e-014
lhumerus -30.914 -13.8991 39.5566
lradius 42.6481
lwrist 47.1009
lhand -32.1545 -6.55309
lfingers 7.12502
lthumb -5.39786 23.3582
rfemur -27.9369 -7.62686 14.5166
rtibia 21.3085
rfoot -5.3989 -22.9093
rtoes -9.37803
lfemur 3.71746 3.25116 -19.2801
ltibia 16.6763
lfoot -13.1855 4.11204
ltoes -14.3155
1275
root 3.19114 17.9569 27.4266 2.15316 6.36004 -0.208315
lowerback 11.2176 -0.884085 -3.03866
upperback 1.85912 -1.37987 3.16263
thorax -4.19161 -0.622085 5.24026
lowerneck -24.3529 1.7409 8.19252
upperneck 12.5576 1.34247 -9.17376
head 7.96059 0.0832181 -4.26699
rclavicle 9.14409e-015 -1.19271e-014
rhumerus -20.525 -34.2656 -17.4618
rradius 35.905
rwrist 0.332253
rhand -22.8122 -1.28316
rfingers 7.12502
rthumb 3.62446 -31.2321
lclavicle 9.14409e-015 -1.19271e-014
lhumerus -30.8938 -13.8128 39.8758
lradius 42.6136
lwrist 46.8466
lhand -32.0602 -6.51598
lfingers 7.12502
lthumb -5.30684 23.3976
rfemur -27.8724 -7.26666 13.8956
rtibia 20.4826
rfoot -5.49134 -23.3611
rtoes -9.45514
lfemur 4.1749 3.26533 -19.5034
ltibia 16.3581
lfoot -13.0977 3.99537
ltoes -14.5125
1276
root 3.16689 17.9428 27.5159 2.18147 6.71333 0.212804
lowerback 11.1078 -0.958671 -3.2876
upperback 1.87185 -1.50575 3.17983
thorax -4.09604 -0.683867 5.41464
lowerneck -24.4254 1.74633 8.20331
upperneck 12.5672 1.36521 -9.30032
head 7.97961 0.0797124 -4.31084
rclavicle 0 2.62396e-014
rhumerus -20.5924 -34.4768 -17.4207
rradius 35.9558
rwrist 0.840116
rhand -22.5039 -1.13309
rfingers 7.12502
rthumb 3.92221 -31.0767
lclavicle 0 2.62396e-014
lhumerus -30.855 -13.7597 40.126
lradius 42.6039
lwrist 46.6295
lhand -32.0075 -6.42821
lfingers 7.12502
lthumb -5.25602 23.4866
rfemur -27.8457 -7.01666 13.2213
rtibia 19.8589
rfoot -5.6487 -23.732
rtoes -9.50844
lfemur 4.62243 3.25958 -19.8031
ltibia 16.0423
lfoot -13.0014 3.87764
ltoes -14.6785
1277
root 3.14176 17.9287 27.608 2.17793 7.08276 0.534802
lowerback 11.0061 -1.03512 -3.41692
upperback 1.88404 -1.61843 3.22189
thorax -4.00868 -0.740563 5.54495
lowerneck -24.4854 1.7396 8.20267
upperneck 12.5713 1.37917 -9.44408
head 7.99415 0.0698776 -4.35978
rclavicle -1.78906e-015 1.11319e-014
rhumerus -20.6926 -34.6499 -17.3202
rradius 36.0295
rwrist 1.27434
rhand -22.2515 -0.963044
rfingers 7.12502
rthumb 4.16586 -30.9021
lclavicle -1.78906e-015 1.11319e-014
lhumerus -30.7681 -13.7481 40.3061
lradius 42.5908
lwrist 46.4319
lhand -31.9681 -6.33948
lfingers 7.12502
lthumb -5.21792 23.5763
rfemur -27.7747 -6.84028 12.6827
rtibia 19.3733
rfoot -5.80506 -24.0356
rtoes -9.56459
lfemur 5.07764 3.23121 -19.9814
ltibia 15.7827
lfoot -12.9323 3.76265
ltoes -14.8839
1278
root 3.11567 17.9149 27.702 2.13791 7.45348 0.725811
lowerback 10.9413 -1.12446 -3.43753
upperback 1.87106 -1.73372 3.31329
thorax -3.96895 -0.797935 5.66759
lowerneck -24.4392 1.74217 8.22488
upperneck 12.5401 1.41237 -9.63361
head 7.98224 0.0679013 -4.42377
rclavicle 1.19271e-015 -3.89618e-014
rhumerus -20.7306 -34.7568 -17.2122
rradius 36.0621
rwrist 1.61159
rhand -22.0993 -0.79761
rfingers 7.12502
rthumb 4.31291 -30.7337
lclavicle 1.19271e-015 -3.89618e-014
lhumerus -30.729 -13.7178 40.418
lradius 42.6159
lwrist 46.2502
lhand -31.9656 -6.2454
lfingers 7.12502
lthumb -5.21549 23.6704
rfemur -27.6638 -6.6908 12.3121
rtibia 19.0264
rfoot -5.98642 -24.3022
rtoes -9.58994
lfemur 5.5381 3.16873 -20.0057
ltibia 15.578
lfoot -12.8795 3.66207
ltoes -15.1634
1279
root 3.08881 17.9011 27.7978 2.08036 7.83479 0.839496
lowerback 10.9059 -1.22286 -3.38754
upperback 1.83177 -1.85186 3.43558
thorax -3.97355 -0.855645 5.7848
lowerneck -24.3327 1.74945 8.25317
upperneck 12.5161 1.45941 -9.84834
head 7.96484 0.0716329 -4.49512
rclavicle -2.40529e-014 1.82882e-014
rhumerus -20.717 -34.7884 -17.0957
rradius 36.0551
rwrist 1.78969
rhand -22.0831 -0.691967
rfingers 7.12502
rthumb 4.32852 -30.6277
lclavicle -2.40529e-014 1.82882e-014
lhumerus -30.7181 -13.6756 40.4658
lradius 42.6758
lwrist 46.116
lhand -32.02 -6.14372
lfingers 7.12502
lthumb -5.26802 23.7708
rfemur -27.509 -6.61456 12.0641
rtibia 18.7694
rfoot -6.09029 -24.4971
rtoes -9.6148
lfemur 5.96805 3.05545 -19.9393
ltibia 15.4666
lfoot -12.8589 3.5747
ltoes -15.5014
1280
root 3.06088 17.8865 27.8948 2.06311 8.20843 1.0555
lowerback 10.8608 -1.30155 -3.41691
upperback 1.76804 -1.95424 3.52546
thorax -3.99847 -0.903576 5.9112
lowerneck -24.2225 1.74944 8.28401
upperneck 12.5073 1.50011 -10.0807
head 7.9517 0.0708736 -4.57421
rclavicle -1.19271e-015 -1.66979e-014
rhumerus -20.7412 -34.793 -16.9336
rradius 36.0576
rwrist 1.82899
rhand -22.1759 -0.65417
rfingers 7.12502
rthumb 4.23894 -30.5917
lclavicle -1.19271e-015 -1.66979e-014
lhumerus -30.6657 -13.654 40.4471
lradius 42.7303
lwrist 45.9942
lhand -32.0735 -6.17298
lfingers 7.12502
lthumb -5.31968 23.7402
rfemur -27.3785 -6.58781 11.7376
rtibia 18.6423
rfoot -6.16015 -24.64
rtoes -9.59591
lfemur 6.34533 2.88916 -19.9885
ltibia 15.4118
lfoot -12.84 3.51802
ltoes -15.89
1281
root 3.0318 17.8719 27.9935 1.99612 8.58175 1.13846
lowerback 10.8546 -1.38139 -3.31051
upperback 1.70794 -2.04104 3.65562
thorax -4.04614 -0.944654 6.00225
lowerneck -24.1306 1.74241 8.29181
upperneck 12.518 1.53782 -10.3076
head 7.94776 0.0677374 -4.64873
rclavicle -1.33186e-014 -3.18055e-015
rhumerus -20.7618 -34.7864 -16.7489
rradius 36.0534
rwrist 1.82387
rhand -22.3099 -0.64746
rfingers 7.12502
rthumb 4.10947 -30.5876
lclavicle -1.33186e-014 -3.18055e-015
lhumerus -30.5745 -13.628 40.3671
lradius 42.7559
lwrist 45.8779
lhand -32.1204 -6.28459
lfingers 7.12502
lthumb -5.36498 23.6275
rfemur -27.2037 -6.59152 11.5902
rtibia 18.6429
rfoot -6.21373 -24.7372
rtoes -9.57031
lfemur 6.74085 2.69653 -19.8812
ltibia 15.4049
lfoot -12.8294 3.45017
ltoes -16.3075
